<svg id="visual" viewBox="0 0 900 675" width="900" height="675" xmlns="http://www.w3.org/2000/svg" xmlns:xlink="http://www.w3.org/1999/xlink" version="1.1"><path d="M0 123L6.5 118.5C13 114 26 105 39 105C52 105 65 114 78 117.3C91 120.7 104 118.3 117.2 119.3C130.3 120.3 143.7 124.7 156.8 128C170 131.3 183 133.7 196 127C209 120.3 222 104.7 235 101.3C248 98 261 107 274 109.2C287 111.3 300 106.7 313 104.3C326 102 339 102 352 108.8C365 115.7 378 129.3 391 132.8C404 136.3 417 129.7 430.2 119.5C443.3 109.3 456.7 95.7 469.8 92.2C483 88.7 496 95.3 509 96.5C522 97.7 535 93.3 548 95.7C561 98 574 107 587 113.7C600 120.3 613 124.7 626 128C639 131.3 652 133.7 665 128.2C678 122.7 691 109.3 704 109.3C717 109.3 730 122.7 743.2 119.2C756.3 115.7 769.7 95.3 782.8 92C796 88.7 809 102.3 822 108C835 113.7 848 111.3 861 112.5C874 113.7 887 118.3 893.5 120.7L900 123L900 0L893.5 0C887 0 874 0 861 0C848 0 835 0 822 0C809 0 796 0 782.8 0C769.7 0 756.3 0 743.2 0C730 0 717 0 704 0C691 0 678 0 665 0C652 0 639 0 626 0C613 0 600 0 587 0C574 0 561 0 548 0C535 0 522 0 509 0C496 0 483 0 469.8 0C456.7 0 443.3 0 430.2 0C417 0 404 0 391 0C378 0 365 0 352 0C339 0 326 0 313 0C300 0 287 0 274 0C261 0 248 0 235 0C222 0 209 0 196 0C183 0 170 0 156.8 0C143.7 0 130.3 0 117.2 0C104 0 91 0 78 0C65 0 52 0 39 0C26 0 13 0 6.5 0L0 0Z" fill="#c7b69f"></path><path d="M0 197L6.5 189.2C13 181.3 26 165.7 39 165.7C52 165.7 65 181.3 78 186.8C91 192.3 104 187.7 117.2 186.5C130.3 185.3 143.7 187.7 156.8 188.8C170 190 183 190 196 184.3C209 178.7 222 167.3 235 168.5C248 169.7 261 183.3 274 183.3C287 183.3 300 169.7 313 166.3C326 163 339 170 352 176.8C365 183.7 378 190.3 391 190.3C404 190.3 417 183.7 430.2 173.5C443.3 163.3 456.7 149.7 469.8 147.3C483 145 496 154 509 157.3C522 160.7 535 158.3 548 160.7C561 163 574 170 587 176.8C600 183.7 613 190.3 626 195.8C639 201.3 652 205.7 665 200C678 194.3 691 178.7 704 178.7C717 178.7 730 194.3 743.2 192.2C756.3 190 769.7 170 782.8 162.2C796 154.3 809 158.7 822 164.2C835 169.7 848 176.3 861 179.7C874 183 887 183 893.5 183L900 183L900 121L893.5 118.7C887 116.3 874 111.7 861 110.5C848 109.3 835 111.7 822 106C809 100.3 796 86.7 782.8 90C769.7 93.3 756.3 113.7 743.2 117.2C730 120.7 717 107.3 704 107.3C691 107.3 678 120.7 665 126.2C652 131.7 639 129.3 626 126C613 122.7 600 118.3 587 111.7C574 105 561 96 548 93.7C535 91.3 522 95.7 509 94.5C496 93.3 483 86.7 469.8 90.2C456.7 93.7 443.3 107.3 430.2 117.5C417 127.7 404 134.3 391 130.8C378 127.3 365 113.7 352 106.8C339 100 326 100 313 102.3C300 104.7 287 109.3 274 107.2C261 105 248 96 235 99.3C222 102.7 209 118.3 196 125C183 131.7 170 129.3 156.8 126C143.7 122.7 130.3 118.3 117.2 117.3C104 116.3 91 118.7 78 115.3C65 112 52 103 39 103C26 103 13 112 6.5 116.5L0 121Z" fill="#c1b099"></path><path d="M0 291L6.5 285.5C13 280 26 269 39 265.7C52 262.3 65 266.7 78 271.2C91 275.7 104 280.3 117.2 280.3C130.3 280.3 143.7 275.7 156.8 273.3C170 271 183 271 196 265.3C209 259.7 222 248.3 235 249.5C248 250.7 261 264.3 274 265.5C287 266.7 300 255.3 313 248.5C326 241.7 339 239.3 352 241.7C365 244 378 251 391 251C404 251 417 244 430.2 235C443.3 226 456.7 215 469.8 215C483 215 496 226 509 232.7C522 239.3 535 241.7 548 249.7C561 257.7 574 271.3 587 277C600 282.7 613 280.3 626 283.7C639 287 652 296 665 288.2C678 280.3 691 255.7 704 248.8C717 242 730 253 743.2 255.2C756.3 257.3 769.7 250.7 782.8 251.8C796 253 809 262 822 262C835 262 848 253 861 249.7C874 246.3 887 248.7 893.5 249.8L900 251L900 181L893.5 181C887 181 874 181 861 177.7C848 174.3 835 167.7 822 162.2C809 156.7 796 152.3 782.8 160.2C769.7 168 756.3 188 743.2 190.2C730 192.3 717 176.7 704 176.7C691 176.7 678 192.3 665 198C652 203.7 639 199.3 626 193.8C613 188.3 600 181.7 587 174.8C574 168 561 161 548 158.7C535 156.3 522 158.7 509 155.3C496 152 483 143 469.8 145.3C456.7 147.7 443.3 161.3 430.2 171.5C417 181.7 404 188.3 391 188.3C378 188.3 365 181.7 352 174.8C339 168 326 161 313 164.3C300 167.7 287 181.3 274 181.3C261 181.3 248 167.7 235 166.5C222 165.3 209 176.7 196 182.3C183 188 170 188 156.8 186.8C143.7 185.7 130.3 183.3 117.2 184.5C104 185.7 91 190.3 78 184.8C65 179.3 52 163.7 39 163.7C26 163.7 13 179.3 6.5 187.2L0 195Z" fill="#bca992"></path><path d="M0 501L6.5 495.3C13 489.7 26 478.3 39 467C52 455.7 65 444.3 78 443.2C91 442 104 451 117.2 456.7C130.3 462.3 143.7 464.7 156.8 461.3C170 458 183 449 196 445.7C209 442.3 222 444.7 235 439C248 433.3 261 419.7 274 426.3C287 433 300 460 313 462.3C326 464.7 339 442.3 352 434.5C365 426.7 378 433.3 391 434.3C404 435.3 417 430.7 430.2 435.2C443.3 439.7 456.7 453.3 469.8 459C483 464.7 496 462.3 509 464.5C522 466.7 535 473.3 548 465.5C561 457.7 574 435.3 587 436.5C600 437.7 613 462.3 626 475.8C639 489.3 652 491.7 665 481.5C678 471.3 691 448.7 704 435.2C717 421.7 730 417.3 743.2 418.5C756.3 419.7 769.7 426.3 782.8 428.5C796 430.7 809 428.3 822 423.8C835 419.3 848 412.7 861 417.2C874 421.7 887 437.3 893.5 445.2L900 453L900 249L893.5 247.8C887 246.7 874 244.3 861 247.7C848 251 835 260 822 260C809 260 796 251 782.8 249.8C769.7 248.7 756.3 255.3 743.2 253.2C730 251 717 240 704 246.8C691 253.7 678 278.3 665 286.2C652 294 639 285 626 281.7C613 278.3 600 280.7 587 275C574 269.3 561 255.7 548 247.7C535 239.7 522 237.3 509 230.7C496 224 483 213 469.8 213C456.7 213 443.3 224 430.2 233C417 242 404 249 391 249C378 249 365 242 352 239.7C339 237.3 326 239.7 313 246.5C300 253.3 287 264.7 274 263.5C261 262.3 248 248.7 235 247.5C222 246.3 209 257.7 196 263.3C183 269 170 269 156.8 271.3C143.7 273.7 130.3 278.3 117.2 278.3C104 278.3 91 273.7 78 269.2C65 264.7 52 260.3 39 263.7C26 267 13 278 6.5 283.5L0 289Z" fill="#b6a38c"></path><path d="M0 615L6.5 614C13 613 26 611 39 608.8C52 606.7 65 604.3 78 602C91 599.7 104 597.3 117.2 601.8C130.3 606.3 143.7 617.7 156.8 622.2C170 626.7 183 624.3 196 618.7C209 613 222 604 235 599.5C248 595 261 595 274 598.3C287 601.7 300 608.3 313 608.3C326 608.3 339 601.7 352 600.7C365 599.7 378 604.3 391 603.2C404 602 417 595 430.2 593.8C443.3 592.7 456.7 597.3 469.8 604.2C483 611 496 620 509 624.5C522 629 535 629 548 627.8C561 626.7 574 624.3 587 621C600 617.7 613 613.3 626 611.2C639 609 652 609 665 606.7C678 604.3 691 599.7 704 597.3C717 595 730 595 743.2 599.5C756.3 604 769.7 613 782.8 611.8C796 610.7 809 599.3 822 598.2C835 597 848 606 861 608.3C874 610.7 887 606.3 893.5 604.2L900 602L900 451L893.5 443.2C887 435.3 874 419.7 861 415.2C848 410.7 835 417.3 822 421.8C809 426.3 796 428.7 782.8 426.5C769.7 424.3 756.3 417.7 743.2 416.5C730 415.3 717 419.7 704 433.2C691 446.7 678 469.3 665 479.5C652 489.7 639 487.3 626 473.8C613 460.3 600 435.7 587 434.5C574 433.3 561 455.7 548 463.5C535 471.3 522 464.7 509 462.5C496 460.3 483 462.7 469.8 457C456.7 451.3 443.3 437.7 430.2 433.2C417 428.7 404 433.3 391 432.3C378 431.3 365 424.7 352 432.5C339 440.3 326 462.7 313 460.3C300 458 287 431 274 424.3C261 417.7 248 431.3 235 437C222 442.7 209 440.3 196 443.7C183 447 170 456 156.8 459.3C143.7 462.7 130.3 460.3 117.2 454.7C104 449 91 440 78 441.2C65 442.3 52 453.7 39 465C26 476.3 13 487.7 6.5 493.3L0 499Z" fill="#b19c86"></path><path d="M0 676L6.5 676C13 676 26 676 39 676C52 676 65 676 78 676C91 676 104 676 117.2 676C130.3 676 143.7 676 156.8 676C170 676 183 676 196 676C209 676 222 676 235 676C248 676 261 676 274 676C287 676 300 676 313 676C326 676 339 676 352 676C365 676 378 676 391 676C404 676 417 676 430.2 676C443.3 676 456.7 676 469.8 676C483 676 496 676 509 676C522 676 535 676 548 676C561 676 574 676 587 676C600 676 613 676 626 676C639 676 652 676 665 676C678 676 691 676 704 676C717 676 730 676 743.2 676C756.3 676 769.7 676 782.8 676C796 676 809 676 822 676C835 676 848 676 861 676C874 676 887 676 893.5 676L900 676L900 600L893.5 602.2C887 604.3 874 608.7 861 606.3C848 604 835 595 822 596.2C809 597.3 796 608.7 782.8 609.8C769.7 611 756.3 602 743.2 597.5C730 593 717 593 704 595.3C691 597.7 678 602.3 665 604.7C652 607 639 607 626 609.2C613 611.3 600 615.7 587 619C574 622.3 561 624.7 548 625.8C535 627 522 627 509 622.5C496 618 483 609 469.8 602.2C456.7 595.3 443.3 590.7 430.2 591.8C417 593 404 600 391 601.2C378 602.3 365 597.7 352 598.7C339 599.7 326 606.3 313 606.3C300 606.3 287 599.7 274 596.3C261 593 248 593 235 597.5C222 602 209 611 196 616.7C183 622.3 170 624.7 156.8 620.2C143.7 615.7 130.3 604.3 117.2 599.8C104 595.3 91 597.7 78 600C65 602.3 52 604.7 39 606.8C26 609 13 611 6.5 612L0 613Z" fill="#ab9680"></path></svg>